<svg width="45" height="41" fill="none" xmlns="http://www.w3.org/2000/svg"><path fill-rule="evenodd" clip-rule="evenodd" d="M43.125 41H1.875v-1.864h3.75V22.364H0V3.727h5.625V0h5.625v3.727h22.5V0h5.625v3.727H45v18.637h-5.625v16.772h3.75V41zM9.375 22.364H7.5v16.772h1.875V22.364zm28.125 0h-1.875v16.772H37.5V22.364zm-3.75 0h-22.5v16.772h22.5V22.364zM43.125 5.59H1.875V20.5h41.25V5.59zM9.375 18.636H3.75L7.5 7.455h5.625l-3.75 11.181zm18.75 0H22.5l3.75-11.181h5.625l-3.75 11.181zm-9.375 0h-5.625l3.75-11.181H22.5l-3.75 11.181zm18.75 0h-5.625l3.75-11.181h5.625L37.5 18.636zM10.524 9.318H8.852L6.35 16.773h1.672l2.501-7.455zm18.75 0h-1.672L25.1 16.773h1.672l2.501-7.455zm-9.375 0h-1.672l-2.501 7.455h1.672L19.9 9.318zm18.75 0h-1.672l-2.501 7.455h1.672l2.501-7.455zm-3.024-7.454v1.863H37.5V1.864h-1.875zm-28.125 0v1.863h1.875V1.864H7.5z" fill="#FF6501"/></svg>