<svg width="45" height="45" fill="none" xmlns="http://www.w3.org/2000/svg"><path fill-rule="evenodd" clip-rule="evenodd" d="M31.718 21.64l-2.12-7.776 2.425-6.024 6.756 2.175-.364 4.575-6.697 7.05zm11.117-3.253c1.326 3.877-2.363 4.582-3.473 4.338-1.623-.37-3.583-.87-4.908-1.22L40.23 15.4l.537-6.716-9.831-3.162-3.311 8.225L31.753 28.9a.862.862 0 0 1-.828 1.087H2.734c-.585 0-.859-.515-.859-.86V21.5c0-.584.512-.86.859-.86H15v-6.682c0-.473.386-.86.86-.86h5.89S28.41 4.1 29.732 2.182c.244-.354.728-.386 1.107-.221 2.92 1.28 9.433 4.215 12.01 5.502a.5.5 0 0 1 .278.445c-.058.431-1.462 5.496-1.728 6.474.208.563.819 2.216 1.436 4.005zm2.164-10.48a2.36 2.36 0 0 0-1.31-2.123c-2.605-1.303-9.162-4.255-12.1-5.542A2.884 2.884 0 0 0 30.428 0c-.841 0-1.668.36-2.176 1.028-1.026 1.35-6.355 8.71-7.427 10.194H15.86a2.738 2.738 0 0 0-2.736 2.736v4.806H2.734C1.419 18.764 0 19.813 0 21.5v7.628c0 1.316 1.046 2.736 2.734 2.736h28.19c1.834 0 3.102-1.745 2.639-3.457l-1.526-5.597c.782.21 4.455 1.188 6.913 1.747 2.278.521 4.056-.822 4.414-1.126a4.537 4.537 0 0 0 1.63-3.508c0-1.195-.275-1.947-1.628-5.625 1.644-5.981 1.642-6.073 1.633-6.39zM31.875 43.124H5.625a3.755 3.755 0 0 1-3.75-3.753c0-2.054 1.673-3.74 3.75-3.753h26.25a3.757 3.757 0 0 1 3.75 3.753 3.755 3.755 0 0 1-3.75 3.753zm0-9.382H5.588A5.63 5.63 0 1 0 5.626 45h26.25a5.63 5.63 0 0 0 0-11.26zm-.168 6.543a.94.94 0 0 1 0-1.877.937.937 0 1 1 0 1.877zm0-3.753a2.816 2.816 0 0 0 0 5.63 2.816 2.816 0 0 0 0-5.63zM23.2 40.284a.941.941 0 0 1-.939-.938.94.94 0 1 1 .94.938zm0-3.753a2.817 2.817 0 0 0-2.814 2.815 2.819 2.819 0 0 0 2.814 2.815 2.816 2.816 0 0 0 0-5.63zm-9 3.753a.94.94 0 0 1 0-1.876.938.938 0 0 1 0 1.876zm0-3.753a2.816 2.816 0 0 0 0 5.63 2.816 2.816 0 0 0 0-5.63zm-8.382 3.753a.94.94 0 0 1 0-1.877.938.938 0 0 1 0 1.877zm0-3.753a2.816 2.816 0 0 0 0 5.63 2.816 2.816 0 0 0 0-5.63zM3.743 22.457h7.5v1.876h-7.5v-1.876zm0 3.753h7.5v1.877h-7.5V26.21zm15-5.63v-3.753h5.803l.979 3.753h-6.782zm-1.875-5.63v7.507h11.085c-.65-2.504-1.305-5.005-1.96-7.506h-9.125z" fill="#FF6501"/></svg>