<svg width="44" height="41" fill="none" xmlns="http://www.w3.org/2000/svg"><path fill-rule="evenodd" clip-rule="evenodd" d="M20.167 33.543c0 4.117-3.286 7.457-7.334 7.457S5.5 37.66 5.5 33.543c0-.643.08-1.267.231-1.864H3.667v-5.592h18.186L27.5 7.445h7.845c.79 0 1.489.513 1.738 1.275l3.25 9.91 2.452 1.245a2.244 2.244 0 0 1 1.215 2v7.94c0 1.031-.821 1.864-1.833 1.864h-2.065c.15.597.231 1.221.231 1.864C40.333 37.66 37.048 41 33 41s-7.333-3.34-7.333-7.457h-5.5zm-7.334-5.592c3.036 0 5.5 2.505 5.5 5.592 0 3.087-2.464 5.593-5.5 5.593s-5.5-2.506-5.5-5.593 2.464-5.592 5.5-5.592zm20.167 0c3.036 0 5.5 2.505 5.5 5.592 0 3.087-2.464 5.593-5.5 5.593s-5.5-2.506-5.5-5.593 2.464-5.592 5.5-5.592zm-20.167 3.728c1.012 0 1.834.835 1.834 1.864 0 1.03-.822 1.865-1.834 1.865S11 34.572 11 33.543s.821-1.864 1.833-1.864zm20.167 0c1.012 0 1.833.835 1.833 1.864 0 1.03-.821 1.865-1.833 1.865s-1.833-.836-1.833-1.865.821-1.864 1.833-1.864zm2.345-22.37h-6.492l-5.647 18.642h-5.523a7.493 7.493 0 0 1 2.253 3.728h5.962c.816-3.213 3.688-5.592 7.102-5.592 2.712 0 5.082 1.5 6.35 3.728h2.817v-7.94a.372.372 0 0 0-.208-.333l-3.125-1.59-3.49-10.642zM7.985 27.952H5.5v1.864h.983c.4-.7.907-1.33 1.501-1.864zm12.644-3.728H3.667L0 9.31h3.179L11.407.68c.416-.438.986-.68 1.577-.68 1.023 0 1.648.66 1.908 1.118l4.615 8.132 1.54-5.533h13.786v1.864H26.13l-5.5 18.642zM24.215 5.58h-1.782l-1.557 5.593H2.35L5.1 22.358h14.166l4.95-16.778zm-11.04 14.913h-1.939l-1.899-7.456h1.824l2.013 7.456zm-3.838 0H7.4l-1.9-7.455h1.824l2.013 7.456zm7.675 0h-1.938l-1.9-7.456H15l2.013 7.456zm19.45-1.864h-7.129v-7.456h4.987l2.141 7.456zM33 13.038h-1.833v3.728h2.752L33 13.038zM17.422 9.31l-4.117-7.26a.365.365 0 0 0-.58-.074L5.733 9.31h11.69z" fill="#FF6501"/></svg>