<svg width="23" height="23" fill="none" xmlns="http://www.w3.org/2000/svg"><path d="M11.5 23c-2.081 0-4.006-.513-5.772-1.539a11.357 11.357 0 0 1-4.19-4.188C.514 15.505 0 13.58 0 11.5c0-2.081.513-4.006 1.539-5.772a11.357 11.357 0 0 1 4.189-4.19C7.494.514 9.418 0 11.5 0c2.081 0 4.005.513 5.773 1.539a11.357 11.357 0 0 1 4.188 4.189C22.487 7.494 23 9.418 23 11.5c0 2.081-.513 4.005-1.539 5.773a11.356 11.356 0 0 1-4.188 4.188C15.505 22.487 13.58 23 11.5 23zm5.75-12.938h-4.313v-5.75a1.37 1.37 0 0 0-.426-1.021 1.413 1.413 0 0 0-1.022-.416c-.397 0-.734.139-1.011.416a1.39 1.39 0 0 0-.415 1.022V11.5c0 .404.138.745.415 1.022a1.39 1.39 0 0 0 1.022.415h5.75c.39 0 .726-.142 1.01-.426.285-.285.427-.625.427-1.022s-.138-.734-.415-1.011a1.39 1.39 0 0 0-1.022-.415z" fill="#FF6501"/></svg>